@startuml
title FitLife Membership Management Code Diagram

top to bottom direction

!includeurl https://raw.githubusercontent.com/RicardoNiepel/C4-PlantUML/master/C4_Component.puml

class User {
  +String name
  +String email
  +String address
  +List<House> houses
  +void register()
  +void login()
}

class House {
  +String name
  +String address
  +List<Device> devices
  +void addHouse()
  +void changeHouse()
  +void removeHouse()
  +void addUser()
  +void removeUser()
  +void changeUserAccess()
}

class Device {
  +String type
  +String description
  +Boolean isActive
  +void addDevice()
  +void changeDevice()
  +void removeDevice()
}

User "0..*" -- "0..*" House : has
House "1" -- "0..*" Device : has

@enduml